<?xml version="1.0" standalone="no"?>
<!DOCTYPE svg PUBLIC "-//W3C//DTD SVG 20010904//EN"
 "http://www.w3.org/TR/2001/REC-SVG-20010904/DTD/svg10.dtd">
<svg version="1.0" xmlns="http://www.w3.org/2000/svg"
 width="1280.000000pt" height="640.000000pt" viewBox="0 0 1280.000000 640.000000"
 preserveAspectRatio="xMidYMid meet">
<metadata>
Created by potrace 1.15, written by Peter Selinger 2001-2017
</metadata>
<g transform="translate(0.000000,640.000000) scale(0.100000,-0.100000)"
fill="#000000" stroke="none">
<path d="M6553 5452 c-91 -37 -138 -114 -146 -244 -6 -83 -5 -89 18 -117 15
-18 25 -41 25 -61 l0 -33 -49 6 c-27 3 -68 15 -90 27 -37 19 -52 20 -159 14
l-117 -6 -55 41 c-30 23 -73 59 -95 81 -46 46 -63 49 -89 14 -18 -25 -18 -26
5 -50 19 -20 20 -24 6 -24 -10 0 -17 -8 -17 -20 0 -22 29 -37 88 -47 43 -8 41
-21 -5 -25 -29 -2 -38 -7 -38 -21 0 -21 88 -56 141 -57 17 0 51 -7 75 -16 24
-8 97 -26 163 -40 65 -14 136 -34 157 -44 21 -11 45 -20 53 -20 11 0 14 -12
14 -47 0 -27 3 -80 7 -119 l7 -71 -63 -12 c-35 -7 -88 -23 -118 -37 -44 -20
-70 -24 -145 -24 -50 0 -145 -7 -211 -15 -172 -21 -314 -19 -405 5 -91 24
-151 25 -367 4 -182 -17 -266 -13 -328 15 -22 10 -58 26 -80 36 -28 13 -66 19
-128 19 -101 1 -110 -5 -121 -76 -6 -34 -3 -45 16 -65 23 -25 131 -63 178 -63
15 0 47 -7 70 -15 31 -11 79 -14 179 -13 114 2 151 -1 226 -20 50 -13 142 -27
205 -32 66 -6 140 -18 174 -30 32 -11 97 -25 145 -31 47 -6 145 -21 216 -35
72 -13 149 -27 173 -30 36 -6 42 -10 42 -30 0 -14 11 -80 25 -149 13 -68 29
-175 35 -237 6 -62 21 -158 34 -214 21 -91 22 -110 13 -210 -17 -189 -13 -266
23 -399 18 -66 35 -141 39 -167 7 -44 5 -50 -21 -75 -39 -37 -39 -90 1 -135
42 -49 48 -65 56 -154 l7 -81 -258 -6 c-141 -4 -340 -7 -442 -7 l-185 0 -55
55 c-80 79 -147 110 -242 110 -96 0 -165 -32 -249 -115 l-59 -58 -193 9 c-106
5 -195 6 -198 4 -4 -5 -72 -733 -87 -943 -8 -101 -24 -135 -24 -50 0 29 -20
382 -45 783 -24 402 -70 1153 -100 1670 -31 517 -58 950 -61 963 -2 12 -11 22
-19 22 -8 0 -15 -1 -15 -2 -1 -8 -56 -798 -111 -1605 -35 -507 -67 -919 -70
-915 -4 4 -11 23 -16 42 -9 34 -11 35 -78 45 l-68 10 -66 195 c-45 132 -71
195 -80 195 -10 0 -43 -71 -95 -200 l-81 -200 -105 -6 c-58 -4 -163 -7 -234
-8 l-129 -1 -61 59 c-107 102 -206 135 -318 106 -78 -20 -130 -50 -193 -112
l-51 -50 -168 -6 c-97 -4 -172 -11 -176 -17 -3 -5 -23 -191 -44 -412 -58 -606
-62 -638 -69 -598 -3 19 -10 121 -16 225 -10 170 -30 494 -141 2300 -17 270
-37 593 -45 720 -8 126 -15 244 -15 262 0 26 -4 33 -20 33 -14 0 -20 -7 -20
-21 0 -12 -11 -211 -25 -443 -13 -231 -43 -734 -65 -1116 -22 -382 -44 -764
-50 -849 -5 -85 -10 -164 -11 -175 0 -12 -8 1 -18 29 l-18 50 -71 3 -71 3 -61
192 c-72 228 -77 240 -92 235 -6 -2 -43 -98 -82 -214 l-71 -209 -492 -3 c-430
-2 -493 -4 -493 -17 0 -13 62 -15 507 -13 l508 3 60 182 c33 101 63 183 66
183 3 0 11 -19 18 -42 7 -24 33 -107 57 -185 l45 -142 71 -3 71 -3 32 -94 c29
-89 46 -114 59 -93 5 8 20 251 86 1402 16 283 34 584 40 669 5 85 10 183 10
218 0 34 4 63 8 63 4 0 16 -132 25 -292 10 -161 31 -507 47 -768 16 -261 43
-695 60 -965 16 -269 43 -703 59 -964 17 -261 34 -478 39 -483 5 -5 13 -4 19
4 5 7 35 288 67 623 32 336 60 627 63 648 l6 37 160 0 160 0 67 63 c80 76 140
107 218 114 85 7 153 -22 243 -105 l72 -67 246 3 c170 3 249 7 257 15 6 7 42
89 80 184 38 95 72 169 75 165 3 -4 20 -50 38 -102 18 -52 44 -127 58 -167
l25 -72 47 -6 c88 -12 88 -11 100 -62 28 -113 42 -153 56 -153 19 0 15 -45
100 1210 70 1029 81 1170 84 1113 1 -30 109 -1796 122 -2003 5 -91 27 -450 48
-798 24 -386 43 -638 50 -645 7 -7 13 -3 19 14 5 13 33 292 61 619 29 327 55
617 58 643 l6 48 189 -7 188 -7 62 62 c78 78 147 113 225 114 79 0 140 -29
221 -106 l67 -64 465 6 465 6 -4 95 c-4 105 -16 146 -61 196 -38 43 -38 63 0
99 25 24 30 37 30 76 0 25 -7 63 -15 84 -9 20 -20 55 -24 78 -5 23 -17 78 -26
122 -16 71 -16 97 -5 250 12 167 12 172 -13 285 -14 63 -28 153 -32 200 -3 47
-15 130 -27 185 -11 55 -23 132 -26 170 l-7 70 -35 7 c-125 26 -304 58 -355
63 -86 9 -161 24 -230 45 -33 10 -103 21 -155 24 -52 3 -133 16 -180 27 -59
15 -137 24 -255 29 -178 8 -316 29 -375 58 -38 18 -49 47 -30 81 9 18 20 21
79 21 67 0 92 -7 207 -61 53 -25 157 -28 349 -9 189 19 261 17 355 -9 90 -25
175 -26 365 -5 77 9 187 17 245 18 86 2 113 6 147 24 23 12 75 27 115 34 103
16 103 16 90 140 -6 57 -10 116 -9 132 1 17 -4 32 -13 37 -46 25 -145 59 -215
74 -44 9 -117 27 -161 41 -45 13 -99 24 -119 24 -31 0 -36 3 -30 18 23 55 9
82 -42 82 -16 0 -23 6 -23 18 0 11 -9 27 -20 37 -11 10 -20 23 -20 29 0 6 17
-6 38 -27 67 -67 120 -108 154 -118 19 -6 78 -7 138 -4 95 6 110 5 155 -16 58
-26 134 -31 160 -9 23 19 15 93 -14 124 -19 20 -20 30 -15 106 9 118 44 179
121 210 27 10 41 10 77 -1 52 -15 65 -24 89 -62 10 -16 32 -33 48 -39 21 -7
28 -15 24 -25 -3 -9 -2 -21 3 -27 5 -6 14 -31 21 -56 12 -40 11 -46 -5 -55
-37 -21 -53 -45 -63 -97 -19 -90 22 -198 68 -183 9 2 47 9 84 15 76 12 216 77
301 139 28 21 78 48 111 61 90 35 234 108 285 145 25 18 55 36 68 40 21 6 22
5 11 -13 -10 -16 -10 -24 -1 -35 15 -18 -3 -27 -52 -27 -34 0 -60 -16 -153
-95 -32 -28 -97 -72 -143 -99 -47 -27 -139 -84 -205 -126 -66 -43 -148 -92
-182 -110 l-63 -33 2 -86 c3 -82 1 -90 -41 -181 -34 -74 -58 -110 -112 -167
-83 -87 -83 -93 -35 -237 62 -184 99 -246 166 -281 30 -15 31 -18 16 -27 -12
-7 -26 -7 -40 0 -16 7 -29 6 -48 -4 -23 -12 -27 -12 -32 2 -4 10 -14 14 -25
11 -44 -11 -109 74 -156 203 -35 98 -54 110 -95 58 -24 -31 -25 -36 -27 -218
-2 -229 -17 -399 -45 -509 -19 -78 -21 -101 -15 -305 4 -149 11 -239 21 -276
29 -106 41 -261 28 -355 -7 -47 -10 -90 -7 -95 4 -6 197 -10 505 -10 l498 0
65 193 c36 105 67 185 70 177 3 -8 31 -95 62 -192 l56 -177 71 -3 72 -3 30
-93 c28 -85 50 -114 61 -79 2 6 15 215 29 462 15 248 39 680 56 960 16 281 35
609 42 730 14 250 20 239 37 -70 6 -104 29 -481 51 -837 99 -1610 121 -1955
131 -2128 5 -102 12 -200 15 -217 8 -50 31 -41 38 15 8 55 104 1052 113 1164
3 42 9 81 13 87 4 7 68 14 166 17 l159 7 62 59 c158 150 319 150 469 -2 l59
-60 136 0 c75 0 190 3 256 6 l120 7 73 183 c41 101 75 182 77 181 1 -2 28 -77
58 -167 31 -90 61 -170 67 -177 6 -7 27 -13 47 -14 78 -2 81 -6 111 -112 29
-104 35 -116 50 -101 5 5 39 437 75 959 87 1266 95 1378 99 1382 2 2 6 -45 8
-104 13 -260 200 -3320 204 -3341 2 -12 11 -22 18 -22 17 0 16 -9 67 565 59
673 67 756 71 759 1 2 86 0 188 -5 l185 -7 65 62 c90 87 137 110 225 111 89 0
147 -27 227 -107 l58 -58 253 0 c410 0 687 11 687 27 0 11 -83 13 -463 13
l-462 0 -58 54 c-158 150 -329 148 -486 -6 l-55 -53 -200 0 -201 0 -42 -475
c-46 -517 -56 -603 -60 -555 -2 17 -46 739 -98 1605 -116 1926 -112 1861 -124
1873 -20 20 -30 -41 -45 -283 -37 -579 -147 -2169 -153 -2210 l-6 -45 -11 45
c-13 49 -22 55 -106 65 l-45 6 -65 192 c-43 126 -71 193 -81 195 -11 2 -37
-52 -98 -203 l-84 -205 -232 0 -233 0 -57 55 c-85 81 -151 110 -250 110 -102
0 -170 -30 -256 -112 l-61 -58 -172 -5 -171 -5 -6 -55 c-4 -30 -26 -260 -49
-510 -40 -430 -58 -565 -59 -445 -1 28 -15 268 -31 535 -100 1609 -168 2713
-175 2850 -7 130 -11 150 -30 150 -8 0 -15 -3 -15 -6 0 -3 -7 -116 -15 -252
-8 -136 -33 -560 -55 -942 -22 -382 -49 -846 -60 -1030 -11 -184 -20 -347 -20
-363 0 -36 -16 -27 -24 14 -10 52 -22 59 -95 59 l-66 0 -59 193 c-66 214 -71
227 -89 227 -7 0 -41 -87 -82 -210 l-69 -210 -471 0 -470 0 0 173 c-1 133 -5
185 -18 232 -12 42 -21 126 -28 276 -10 206 -9 219 11 295 29 109 49 325 50
535 0 144 3 179 15 189 12 10 16 9 21 -6 53 -151 115 -240 191 -276 42 -20 47
-20 71 -6 20 12 31 13 43 5 21 -13 93 14 97 37 5 24 -25 66 -46 66 -44 0 -103
99 -155 260 -42 132 -44 118 32 197 59 63 74 86 120 194 53 124 59 160 36 221
-5 12 11 25 62 54 37 21 120 72 184 113 64 42 155 98 202 124 46 27 117 77
156 112 54 47 81 64 109 68 20 2 61 11 90 18 55 14 67 34 37 59 -14 11 -13 14
7 24 26 13 38 65 16 67 -58 5 -137 -21 -197 -65 -55 -40 -186 -107 -278 -141
-37 -14 -90 -43 -117 -64 -84 -63 -212 -121 -300 -137 -91 -16 -91 -16 -101
57 -8 58 9 126 34 134 10 3 27 15 36 25 18 20 18 23 -3 83 -12 34 -22 72 -22
85 0 16 -10 27 -35 39 -19 9 -44 31 -54 48 -13 23 -34 37 -78 53 -70 26 -66
26 -120 4z"/>
</g>
</svg>
